#!OML:ASF X:\für Bonn\!DataBase\2005_08_10_Bjorn_Final\c3d\bjorn.ASF
:FULLY-SPECIFIED
:DEGREES
38
root 4.14953 23.4163 -3.22353 3.0681 -7.4176 357.656
lowerback -3.96526 0.749542 1.93928
upperback 5.14852 0.869698 -0.246337
thorax 7.64729 0.543432 -1.25402
lowerneck 2.10046 -0.588643 1.82266
upperneck 9.54369 -0.641585 -2.14851
head 2.64911 -0.31942 -1.00933
rclavicle 1.47101e-014 -1.39149e-014
rhumerus -17.1178 -10.0709 -71.4936
rradius 85.0137
rwrist 3.38191
rhand -13.921 19.7842
rfingers 7.12502
rthumb 12.2052 -9.83971
lclavicle 1.47101e-014 -1.39149e-014
lhumerus 2.10273 -22.1601 69.5469
lradius 86.503
lwrist -4.19246
lhand -23.9387 -15.626
lfingers 7.12502
lthumb 2.53653 14.3386
rfemur -18.5053 -6.07832 17.9702
rtibia 60.0986
rfoot 22.209 7.00172
rtoes -11.0785
lfemur -8.79958 -0.304061 -14.6827
ltibia 43.9423
lfoot 27.1193 -3.82731
ltoes -16.4408
39
root 4.15933 23.5088 -3.0728 2.8805 -7.39316 357.725
lowerback -3.06076 0.618121 1.82843
upperback 5.61702 0.71123 -0.197836
thorax 7.61455 0.460456 -1.16362
lowerneck 2.1169 -0.519264 1.63973
upperneck 9.06913 -0.55824 -2.07961
head 2.48898 -0.281863 -0.949707
rclavicle 1.13307e-014 -2.52457e-014
rhumerus -17.304 -10.555 -71.3423
rradius 82.4908
rwrist 3.71411
rhand -13.829 20.0522
rfingers 7.12502
rthumb 12.294 -9.56644
lclavicle 1.13307e-014 -2.52457e-014
lhumerus 1.26086 -22.1417 70.4383
lradius 84.1448
lwrist -4.67521
lhand -23.9869 -15.6951
lfingers 7.12502
lthumb 2.48998 14.2702
rfemur -19.7624 -6.43213 18.1162
rtibia 60.9682
rfoot 21.9864 7.6053
rtoes -11.417
lfemur -9.6508 0.0453266 -14.7069
ltibia 44.7945
lfoot 26.9501 -3.74331
ltoes -15.7057
40
root 4.16913 23.5925 -2.91927 2.73871 -7.38303 357.819
lowerback -2.20201 0.509154 1.7152
upperback 6.06973 0.582123 -0.176262
thorax 7.59426 0.392001 -1.09454
lowerneck 2.05318 -0.447885 1.49058
upperneck 8.68477 -0.471471 -2.02269
head 2.37422 -0.241842 -0.901661
rclavicle -2.70347e-014 -6.55989e-015
rhumerus -17.488 -10.9024 -71.3458
rradius 79.8975
rwrist 3.83594
rhand -14.1638 20.3281
rfingers 7.12502
rthumb 11.9712 -9.30954
lclavicle -2.70347e-014 -6.55989e-015
lhumerus 0.414409 -22.1207 71.3791
lradius 81.6538
lwrist -5.2622
lhand -24.053 -15.6652
lfingers 7.12502
lthumb 2.42622 14.3008
rfemur -20.9218 -6.76743 18.2418
rtibia 61.4593
rfoot 21.8074 8.17288
rtoes -11.8715
lfemur -10.5744 0.43098 -14.7505
ltibia 45.587
lfoot 26.6957 -3.62251
ltoes -14.9422
41
root 4.17714 23.6618 -2.7652 2.66928 -7.41097 357.933
lowerback -1.45283 0.427482 1.58254
upperback 6.51528 0.488129 -0.172527
thorax 7.63276 0.340063 -1.02773
lowerneck 2.06976 -0.383618 1.3676
upperneck 8.23282 -0.394449 -1.95985
head 2.22328 -0.204923 -0.855739
rclavicle -4.72114e-015 7.95139e-015
rhumerus -17.6566 -11.1825 -71.4867
rradius 77.3508
rwrist 3.66356
rhand -14.6968 20.5944
rfingers 7.12502
rthumb 11.4572 -9.07249
lclavicle -4.72114e-015 7.95139e-015
lhumerus -0.426804 -22.1117 72.3739
lradius 79.0225
lwrist -5.65883
lhand -24.1995 -15.6427
lfingers 7.12502
lthumb 2.28473 14.3248
rfemur -22.0394 -7.02949 18.3633
rtibia 61.6263
rfoot 21.6762 8.65389
rtoes -12.04
lfemur -11.5899 0.853325 -14.8099
ltibia 46.2786
lfoot 26.2295 -3.47871
ltoes -14.496
42
root 4.1856 23.7233 -2.61436 2.62452 -7.40075 358.026
lowerback -0.631393 0.323111 1.43701
upperback 6.90013 0.361451 -0.12817
thorax 7.56343 0.268005 -0.912845
lowerneck 2.08211 -0.305309 1.27279
upperneck 7.88923 -0.291885 -1.99058
head 2.11021 -0.156598 -0.84537
rclavicle 2.01766e-014 -1.78906e-014
rhumerus -17.9075 -11.3507 -71.6867
rradius 75.026
rwrist 3.18128
rhand -15.2665 20.8476
rfingers 7.12502
rthumb 10.9077 -8.84906
lclavicle 2.01766e-014 -1.78906e-014
lhumerus -1.33012 -22.0479 73.4467
lradius 76.2831
lwrist -5.49404
lhand -24.2878 -15.8206
lfingers 7.12502
lthumb 2.19939 14.1479
rfemur -23.1022 -7.25735 18.4962
rtibia 61.5462
rfoot 21.5115 9.17493
rtoes -12.7579
lfemur -12.6532 1.21848 -14.8466
ltibia 46.832
lfoot 25.5677 -3.24206
ltoes -14.1708
43
root 4.19326 23.7752 -2.46547 2.57959 -7.40457 358.142
lowerback 0.237872 0.233703 1.28099
upperback 7.23211 0.255614 -0.105984
thorax 7.41166 0.205096 -0.812196
lowerneck 2.06234 -0.24274 1.26796
upperneck 7.71221 -0.20551 -2.07923
head 2.0577 -0.115399 -0.870479
rclavicle -6.01324e-015 2.78299e-015
rhumerus -18.2193 -11.5868 -71.9206
rradius 72.8738
rwrist 2.67885
rhand -15.6144 21.1634
rfingers 7.12502
rthumb 10.5722 -8.55066
lclavicle -6.01324e-015 2.78299e-015
lhumerus -2.3609 -21.9074 74.5945
lradius 73.7072
lwrist -4.89341
lhand -24.1661 -16.5697
lfingers 7.12502
lthumb 2.31694 13.3974
rfemur -24.1179 -7.39851 18.5784
rtibia 61.2971
rfoot 21.3736 9.65407
rtoes -13.6679
lfemur -13.6913 1.52235 -14.9201
ltibia 47.1891
lfoot 24.7695 -2.96104
ltoes -13.6768
44
root 4.20245 23.8133 -2.31998 2.57015 -7.39703 358.259
lowerback 1.1336 0.151517 1.14484
upperback 7.5233 0.157432 -0.0908482
thorax 7.20295 0.146687 -0.727781
lowerneck 2.03426 -0.201862 1.27705
upperneck 7.57607 -0.147761 -2.16924
head 2.01967 -0.0881287 -0.899079
rclavicle -2.47984e-014 1.19271e-015
rhumerus -18.6037 -11.9103 -72.1874
rradius 70.9084
rwrist 2.2843
rhand -15.7836 21.4753
rfingers 7.12502
rthumb 10.4089 -8.2471
lclavicle -2.47984e-014 1.19271e-015
lhumerus -3.44649 -21.6565 75.8178
lradius 71.3197
lwrist -4.08921
lhand -23.7633 -17.7493
lfingers 7.12502
lthumb 2.70592 12.2133
rfemur -25.1547 -7.43584 18.626
rtibia 60.9338
rfoot 21.2623 10.1539
rtoes -14.7915
lfemur -14.7157 1.76265 -15.0109
ltibia 47.3161
lfoot 23.9498 -2.61808
ltoes -12.611
45
root 4.21026 23.8392 -2.17479 2.5853 -7.3882 358.376
lowerback 2.0875 0.0700881 0.980929
upperback 7.72003 0.0593887 -0.0645939
thorax 6.86087 0.08509 -0.614327
lowerneck 2.20757 -0.168529 1.28203
upperneck 7.39046 -0.0980464 -2.28588
head 1.93035 -0.0642165 -0.9342
rclavicle -2.66371e-014 3.77691e-015
rhumerus -19.145 -12.151 -72.4768
rradius 69.0784
rwrist 1.96276
rhand -15.8536 21.6647
rfingers 7.12502
rthumb 10.3413 -8.06104
lclavicle -2.66371e-014 3.77691e-015
lhumerus -4.55533 -21.3193 77.0634
lradius 68.8772
lwrist -3.17429
lhand -23.139 -18.5854
lfingers 7.12502
lthumb 3.3089 11.3687
rfemur -26.1829 -7.42139 18.6592
rtibia 60.461
rfoot 21.0801 10.7778
rtoes -15.5091
lfemur -15.7051 2.03093 -15.1005
ltibia 47.2115
lfoot 23.1161 -2.47895
ltoes -11.8708
46
root 4.21887 23.8559 -2.02853 2.57108 -7.38317 358.541
lowerback 3.09424 -0.000422286 0.765136
upperback 7.87353 -0.0260832 -0.0307343
thorax 6.44533 0.0260725 -0.461314
lowerneck 2.54152 -0.139223 1.21946
upperneck 7.10897 -0.0562842 -2.37998
head 1.78219 -0.0439795 -0.94939
rclavicle 4.96962e-016 -1.88845e-014
rhumerus -19.7881 -12.3862 -72.7411
rradius 67.3528
rwrist 2.06199
rhand -15.9225 21.7378
rfingers 7.12502
rthumb 10.2749 -7.99123
lclavicle 4.96962e-016 -1.88845e-014
lhumerus -5.76209 -20.8945 78.3713
lradius 66.5066
lwrist -2.35003
lhand -22.7128 -18.8534
lfingers 7.12502
lthumb 3.72047 11.0939
rfemur -27.1289 -7.34038 18.5994
rtibia 59.8566
rfoot 20.8451 11.4215
rtoes -15.4413
lfemur -16.6122 2.27844 -15.2633
ltibia 46.9036
lfoot 22.235 -2.51855
ltoes -12.1787
47
root 4.22629 23.8667 -1.88123 2.58092 -7.36489 358.707
lowerback 4.06231 -0.0569731 0.611453
upperback 8.0893 -0.0946565 -0.0634103
thorax 6.1231 -0.0176271 -0.41002
lowerneck 2.60388 -0.144592 1.39282
upperneck 6.74938 -0.0540111 -2.63651
head 1.65755 -0.0410821 -1.05725
rclavicle 1.60022e-014 -9.54166e-015
rhumerus -20.3145 -12.7598 -73.1905
rradius 65.6601
rwrist 2.59805
rhand -16.0602 21.8568
rfingers 7.12502
rthumb 10.1421 -7.87875
lclavicle 1.60022e-014 -9.54166e-015
lhumerus -6.73176 -20.6003 79.4594
lradius 64.1335
lwrist -1.04607
lhand -22.6467 -18.5447
lfingers 7.12502
lthumb 3.78432 11.4015
rfemur -28.0797 -7.24564 18.534
rtibia 59.0951
rfoot 20.5548 12.2143
rtoes -15.7645
lfemur -17.4957 2.52336 -15.4359
ltibia 46.4332
lfoot 21.3754 -2.61571
ltoes -13.303
48
root 4.23418 23.8651 -1.73336 2.56239 -7.37644 358.942
lowerback 4.98811 -0.101677 0.399628
upperback 8.42086 -0.15126 -0.119477
thorax 5.95277 -0.0575615 -0.349199
lowerneck 2.23679 -0.138691 1.5068
upperneck 6.3792 -0.0445614 -2.8387
head 1.60394 -0.0376533 -1.13973
rclavicle 8.10048e-015 1.27222e-014
rhumerus -20.6119 -13.2106 -73.7323
rradius 64.0267
rwrist 3.44357
rhand -16.0979 22.0025
rfingers 7.12502
rthumb 10.1057 -7.73482
lclavicle 8.10048e-015 1.27222e-014
lhumerus -7.40522 -20.2418 80.4193
lradius 61.8124
lwrist 0.488524
lhand -22.546 -18.146
lfingers 7.12502
lthumb 3.88157 11.7984
rfemur -28.9742 -7.12369 18.3729
rtibia 58.1315
rfoot 20.4354 12.8677
rtoes -15.2831
lfemur -18.3426 2.76575 -15.6919
ltibia 45.8453
lfoot 20.4933 -2.71319
ltoes -14.8313
49
root 4.24131 23.8465 -1.58159 2.59351 -7.37101 359.13
lowerback 5.79169 -0.14475 0.229616
upperback 8.79155 -0.209507 -0.169563
thorax 5.89689 -0.0959784 -0.304905
lowerneck 1.73438 -0.132703 1.66418
upperneck 5.93478 -0.040669 -3.00695
head 1.55025 -0.0362918 -1.21923
rclavicle 1.04362e-014 -4.37326e-015
rhumerus -20.7928 -13.654 -74.3382
rradius 62.4564
rwrist 4.18763
rhand -15.9899 22.2619
rfingers 7.12502
rthumb 10.2099 -7.4703
lclavicle 1.04362e-014 -4.37326e-015
lhumerus -7.88901 -19.8014 81.2776
lradius 59.4331
lwrist 1.92792
lhand -22.5831 -17.9555
lfingers 7.12502
lthumb 3.84573 11.9896
rfemur -29.7983 -6.95387 18.2542
rtibia 56.9585
rfoot 20.57 13.2415
rtoes -13.6823
lfemur -19.2144 2.94438 -15.9055
ltibia 45.1801
lfoot 19.6226 -2.90101
ltoes -16.3898
